<?xml version="1.0" standalone="no"?>
<!DOCTYPE svg PUBLIC "-//W3C//DTD SVG 20010904//EN"
 "http://www.w3.org/TR/2001/REC-SVG-20010904/DTD/svg10.dtd">
<svg version="1.0" xmlns="http://www.w3.org/2000/svg"
 width="547.000000pt" height="762.000000pt" viewBox="0 0 547.000000 762.000000"
 preserveAspectRatio="xMidYMid meet">

<g transform="translate(0.000000,762.000000) scale(0.100000,-0.100000)"
fill="#000000" stroke="none">
<path d="M5360 7603 c-77 -28 -364 -196 -610 -358 -677 -443 -1379 -1084
-1919 -1750 -213 -262 -433 -571 -565 -792 -43 -71 -75 -115 -89 -119 -12 -4
-308 -89 -657 -190 -349 -101 -636 -187 -637 -191 -2 -4 -198 -393 -437 -863
-238 -470 -432 -857 -430 -859 2 -2 177 76 390 174 383 176 387 177 418 163
17 -8 174 -82 349 -163 l318 -148 -6 -36 c-16 -101 -24 -439 -14 -640 5 -119
13 -219 17 -222 10 -9 1344 -683 1359 -687 37 -10 434 274 688 492 l41 34 309
-170 c171 -93 315 -175 321 -181 6 -7 53 -200 105 -429 52 -229 97 -414 101
-410 4 4 203 393 442 866 l435 858 -239 610 -239 610 44 102 c271 624 491
1568 570 2446 43 489 44 1144 2 1615 -23 250 -24 254 -67 238z"/>
</g>
</svg>
